<?xml version="1.0" standalone="no"?>
<!DOCTYPE svg PUBLIC "-//W3C//DTD SVG 20010904//EN"
 "http://www.w3.org/TR/2001/REC-SVG-20010904/DTD/svg10.dtd">
<svg version="1.0" xmlns="http://www.w3.org/2000/svg"
 width="314.000000pt" height="314.000000pt" viewBox="0 0 314.000000 314.000000"
 preserveAspectRatio="xMidYMid meet">
<metadata>
Created by potrace 1.14, written by Peter Selinger 2001-2017
</metadata>
<g transform="translate(0.000000,314.000000) scale(0.100000,-0.100000)"
fill="#000000" stroke="none">
<path d="M1385 3134 c-623 -91 -1117 -503 -1304 -1088 -95 -298 -95 -654 0
-952 174 -546 624 -948 1189 -1065 99 -21 142 -24 310 -23 163 0 212 4 300 23
432 92 776 327 1014 694 254 389 317 898 167 1348 -176 525 -597 904 -1151
1036 -89 21 -134 25 -300 28 -107 2 -208 1 -225 -1z m1069 -1066 c-3 -4 2 -5
10 -2 11 4 16 0 16 -11 0 -9 5 -13 10 -10 50 31 -72 -97 -586 -611 l-597 -596
-325 326 -326 325 122 123 122 122 190 -189 190 -190 81 80 c45 44 100 98 123
120 69 66 389 378 579 564 l177 175 110 -109 c60 -60 107 -112 104 -117z"/>
</g>
</svg>
